<?xml version="1.0" encoding="UTF-8"?><svg id="Layer_1" xmlns="http://www.w3.org/2000/svg" viewBox="0 0 60 60"><path d="M54.11,12.96c-.76-.11-1.37-.52-1.57-1.52.6.45,1.35,1.07,1.57,1.52Z"/><path d="M49.94,9.58v.74c-1.05-.56-2.05-1.54-2.56-2.52,1.01.77,1.74,1.5,2.56,1.77Z"/><path d="M52.17,11.07c-.24-.08-.49-.32-.74-.74l.74.74Z"/><path d="M55.89,5.49c-1.07-.25-1.53-1.04-1.86-1.86.78.22,1.3.88,1.86,1.86Z"/><path d="M56.27,5.86l-.37-.37.37.37Z"/><path d="M54.84,14.48c1.5,3.12-5.44-3.71-4.53-3.78,1.45,1.19,2.72,2.69,4.53,3.78Z"/><path d="M51.05,9.96l-1.12-.37v-.74c.49.12.92.6,1.12,1.12Z"/><path d="M54.03,3.63c-.75-.21-1.26-.99-1.49-1.56.67.22,1.12.63,1.49,1.56Z"/><path d="M58.92,4.82c-.62-1.4-1.88-2.77-3.28-3.52V.2s3.27,3.01,3.27,3.01l-1.98-2.6c.64-.24,2.11.12,2.27.94.72,3.64-.7-.51.42,3.02.06.2-.58.26-.69.25Z"/><path d="M48.08,6.98c-.29-.3-.94-.76-1.12-1.12.5.07.96.35,1.12,1.12Z"/><path d="M50.31,10.7l-.37-.37.37.37Z"/><path d="M51.05,8.47c-.77-.41-2.07-1.92-2.61-2.61.95-.03,2.34,1.75,2.61,2.61Z"/><path d="M55.1,13.25c.15.3.7.74.84.79l.35,1.31-1.46-.87-.73-1.51.99.28Z"/><path d="M57.73,14.35l.37.5c-.1.08-.25.21-.36.27-.14.09-.46-.18-.68-.33l-1.11-.76c-.05-.26-.37-.66-.84-.79-1.3-2.54-1.2-1.24-2.93-3.66,3.18,1.71,3.03,3.29,5.56,4.77Z"/><path d="M57.01,6.6c-.19,0-.62-.04-.64-.23-.02-.14-.08-.41-.1-.52.17.15.46.41.74.74Z"/><path d="M51.43,10.33l-.37-.37.37.37Z"/><path d="M55.64,1.3c.79,1.27,1.97,2.38,3.28,3.52.1.23.5.78.61.96s-.38.42-.58.51c.04-.03-.3-.42-.45-.43-1.17-2.06-3.13-3.38-4.65-5.51l1.78.95Z"/><path d="M57.82,5.87c-1.33-.25-3.75-4.48-5.34-4.49l-.08-1.38,4.73,4.63c.3.3.7.92.69,1.25Z"/><path d="M52.48,1.38l.07.69-1.64-.53,8.78,9.21c-4.05-2.36-6.03-6.6-9.75-8.96l-.42-.43-.28-.82c-.04-.1.46-.14.54-.07l.41.36.65.58c.11.1.18-.37.18-.57v-.5s1.47,1.04,1.47,1.04Z"/><path d="M49.51,1.35l.42.43c2.64,3.61,6.09,6.6,9.57,9.83l-.02,2.84c0,.14-.34.8-.47.75l-.9-.35-.37-.5c-3.22-4.58-9.25-8.97-13.07-13.98l13.69,13.19c-.45-.88-1.08-1.66-1.81-2.4L45.99.5c1.2.2,2.01,1.18,2.8,2.03,3.1,3.33,6.18,6.4,9.56,9.47-.5-.91-1.2-1.7-1.99-2.5L47.48.52c.79.09,1.38.43,2.02.83Z"/><path d="M58.51,5.86l.45.43c.5.66.64,1.28.27,1.77l-.35-.34-1.07-1.15v-.7c.36-.01.59-.03.71-.02Z"/><path d="M52.17,9.58c-.41-.22-1.01-.79-1.12-1.12.74.39.76.62,1.12,1.12Z"/><polygon points="57.8 6.57 57.78 7.5 57.01 6.6 57.8 6.57"/><path d="M49.19,8.09l-1.12-1.12,1.12,1.12Z"/><path d="M48.08,5.49c-1.47-1.15-3.04-3.17-4.84-4.1-.04-.32-.09-1.01-.05-1.16,1.49,1.12,4.11,3.75,4.89,5.26Z"/><path d="M52.54,11.45l-.37-.37.37.37Z"/><path d="M43.24,1.39l2.92,3.12c.28.3.62.99.8,1.35-1.73-.95-3.89-4.37-4.82-4.03l-.83-.84c-.09-.12.13-.86.26-.78,1.53.91.34.34,1.66,1.18Z"/><polygon points="58.87 7.72 59.22 8.06 59.41 9.55 57.78 7.5 58.87 7.72"/><path d="M49.94,8.84c-.26-.07-.49-.29-.74-.74l.74.74Z"/><path d="M41.31.99l.83.84,4.76,5.5-7.08-6.82c.44.02.89.19,1.49.48Z"/><path d="M48.45,5.86c-.18-.17-.33-.29-.37-.37.18.17.32.3.37.37Z"/><path d="M1.27,1.51l13.3,13.74L1.08,2.51l10.09,11.14L.32,2.95c.47-.89.57-1.37.66-2.27,0,0,.65.05.88.07l14.15,14.39c-3.36-2.33-5.56-5.35-8.34-7.98C5.33,5.62,4.39,2.78,1.27,1.51Z"/><path d="M42.44,15.27c-5.26-4.59-10.07-9.42-14.9-14.88,5.16,4.58,10.11,9.55,14.9,14.88Z"/><path d="M33.14,15.27C27.88,10.68,23.07,5.85,18.24.39c5.16,4.58,10.11,9.55,14.9,14.88Z"/><path d="M23.83,15.27C18.57,10.68,13.76,5.85,8.93.39c5.16,4.58,10.11,9.55,14.9,14.88Z"/><path d="M34.61,15.14c-3.94-2.84-6.67-6.43-10.1-9.54-1.32-1.96-3.38-3.1-4.67-5.31l14.77,14.85Z"/><path d="M47.02,10.59c-3.62-3.09-7.11-6.44-10.22-10.32,3.68,3.2,6.97,6.44,10.22,10.32Z"/><path d="M31.54,15.24C26.19,10.41,21.32,5.61,16.7.32c5.33,4.74,10.21,9.69,14.84,14.92Z"/><path d="M35.06,1.04l5.95,6.29c2.58,2.73,4.09,3.57,5.87,6.32L33.62.42l1.25.42c.16.05.43-.26.78-.56l8.43,8.56c-3.7-1.85-5.19-5.71-9.01-7.81Z"/><path d="M15.61,9.86c1.76,1.83,3.34,3.53,4.9,5.37L5.6.23c3.13,2.12,5.49,4.92,8.09,7.63l1.92,2Z"/><path d="M37.8,11.86c.83,1.3,2.49,1.53,2.72,3.34L25.74.21c4.46,3.39,7.89,7.68,12.06,11.64Z"/><path d="M21.96,15C17.01,10.51,11.98,5.54,7.19.17c5.14,4.54,9.92,9.29,14.77,14.83Z"/><path d="M1.17,10.33l-.37-.37-.36-1.17c-.04-.2.69-.12.9-.18l-.77-.78c-.12-.12-.2-.64-.03-.66.12-.01.35,0,.65,0l-.77-1.68,1.29,1.35,8.02,8.27C7.67,14.36,2.36,6.74.97,7.55l7.36,7.63c-1.93-.51-2.62-2.39-3.97-3.56l-3.26-2.82,5.46,6.52L1.17,10.33Z"/><path d="M1.17,10.33c.51,2.13,3.03,2.49,3.66,4.83l-3.95-3.75c-.17-.16-.54-.69-.44-.86l.36-.6.37.37Z"/><path d="M25.33,15.11c-3.24-2.02-5.22-4.91-7.85-7.36l-2.72-2.84-2.21-2.21c-.72-.72-1.47-1.38-1.99-2.41l14.77,14.82Z"/><path d="M53.29,15.27c-2.32-1.59-4.22-3.51-6-5.97,2.19,1.7,4.13,3.66,6,5.97Z"/><path d="M46.91,8.8c-2.29-1.31-3.77-3.2-5.38-5.05-.91-1.17-2.59-1.6-3.06-3.45l8.44,8.5Z"/><path d="M33.69,9.45l5.52,5.48-1.17-.3c-.21-.05-.45.22-.85.54-.66-.74-1.47-1.73-2.25-2.51-4.06-4-7.74-8.14-12.26-11.87,3.31,5.18,8.41,8.15,11.93,13-1.51-1.18-2.8-2.66-4.19-4.08L21.3.4l1.11.37c.2.07.39-.16.91-.53.9.96,1.9,2.27,2.91,3.25,3.87,3.72,7.12,7.73,11.53,11.1L24.36.22c2.99,2.09,4.88,4.8,7.29,7.2l2.05,2.04Z"/><path d="M38.26,9.91c-2.25-2.11-4.19-4.15-6.17-6.34-.97-1.07-2.63-1.75-2.95-3.39l14.94,15c-2.43-1.12-3.82-3.39-5.82-5.26Z"/><path d="M25.19,10.32c1.64,1.7,3.4,2.99,4.72,4.98L14.98.3c2.94,1.84,4.77,4.4,7,6.7l3.21,3.32Z"/><path d="M51.81,15.25c-1.84-1.07-3.26-2.51-4.51-4.47,1.66,1.24,3.11,2.7,4.51,4.47Z"/><path d="M19.04,15.03c-.84.35-1.11-.72-1.63-1.24L4.14.36c1.92.79,3,2.25,4.06,3.72l10.84,10.95Z"/><path d="M26.88,15.07c-1.4-.31-2.28-1.58-3.22-2.67-1.05-1.2-2.15-2.26-3.26-3.39L11.98.36c1.32.51,2.09,1.43,2.73,2.42l12.17,12.29Z"/><path d="M50.28,15.2c-1.52-.45-2.25-1.58-2.94-2.95,1.1.8,2.1,1.79,2.94,2.95Z"/><path d="M.86,13.07l1.17,1.81H.87c-.27,0-.5-.85-.47-1.16l.16-2.02c1.09,1.19,1.94,2.1,2.88,3.48l-2.58-2.11Z"/><path d="M46.84,12.09c-.96-.79-1.91-1.74-2.93-2.88,1.37.41,2.18,1.23,2.93,2.88Z"/><path d="M13.9,11.76l-3.76-3.7-2.41-2.4c-1.34-1.5-2.73-2.73-3.85-4.38l13.8,13.86c-1.88-.34-2.58-2.2-3.77-3.37Z"/><path d="M28.37,15.06c-1.35.09-1.75-1.36-2.57-2.19L13.36.29c2.12.94,3.36,2.91,4.92,4.5l10.09,10.27Z"/><path d="M36.24,4.16l10.65,10.87-1.19-.39c-.15-.05-.54.4-.76.57l-2.39-2.64-6.51-6.6L30.65.54c5.51,4.12,9.16,9.93,15.02,13.99-4.07-5.12-8.77-8.92-13.17-13.74-.71.25-.21.03.45-.25l3.29,3.6Z"/><path d="M7.23,10.78c1.53,1.42,2.76,2.86,3.92,4.39L.32,4.14c2.49,1.87,4.42,4.34,6.9,6.63Z"/><path d="M36.3,14.85c-.1.13-.84.41-.9.21s-.32-1.02-.29-.93l1.2.72Z"/><path d="M48.91,14.97c-.44.14-.94.36-1.01.22l-.5-1.09,1.51.88Z"/><path d="M12.66,15.22l-1.08-1.07c.61-.25,1.02.07,1.08,1.07Z"/><path d="M2.68.5c-.06-.09.58.01.59.12.02.16.05.9-.04.76l-.55-.88Z"/><path d="M49.26,23.2c.16.31.69.84,1.06,1.11l.73,1.43c-.92-.4-1.57-.9-2.22-1.43-.1-.18-.48-.62-.82-.79-.13-.2.02-.81.22-.73l1.02.4Z"/><path d="M44.74,28.78c-.2-.16-.69-.67-.74-.74.1.05.7.53.74.74Z"/><path d="M46.98,31.01c-.08-.05-.32-.29-.37-.36l.37.36Z"/><path d="M50.33,32.88c-.62-.4-1.27-1.09-1.86-1.86.81.56,1.38,1.25,1.86,1.86Z"/><path d="M57.03,29.53c.15.22.52.56.74.74l.37.37-.06.75-1.09-.37-.72-1.48s.59-.01.76-.02Z"/><path d="M47.35,27.67c-.27-.99-.75-1.25-1.49-1.49l-2.47-3.55,14.71,14.27-13.28-14.22,13.98,13.44-7.72-8.82,7.86,7.37c-1.39-2.68-7.43-6.91-7.88-8.92,2.11,1.88,3.82,3.89,5.94,5.29.41.84,1.17,1.59,2,2.13l-.52-1.29.64.27c.12.05.24-.69.13-.76l-1.1-.73-.37-.37c-.08-.37-.11-.68-.23-.7-.13-.02-.39-.05-.51-.05l-1.59-1.53c-1.69-3.15-3.26-3.15-4.27-5.24l8.13,7.42-6.67-7.37c2.61,1.68,4.1,3.8,6.37,5.51l-4.95-5.38c2.31.35,2.38,2.54,4.18,3.08l-2.75-3.18c.82.18,1.3.34,1.86.56l-.15-.59c-.03-.1.43-.29.52-.22,1.77,1.46.75,1.36,2.21,4.51l.1,10.22c-1.66.89-2.82-.26-3.86-1.31-2.92-2.97-5.57-6.13-8.8-8.34Z"/><path d="M55.14,37.03l.02-.8c.55.17,1.53.53,1.52,1.57l-1.54-.77Z"/><path d="M46.98,31.01c1.23.78,2.54,1.92,3.33,3.39l-1.47-.53c1.25,1.5,2.17,2.38,3.07,3.89l-4.12-3.78c.19,2.11,2.57,1.94,2.48,3.85l-14.8-14.97c4.74,3.17,7.46,7.81,11.83,10.88l-10.26-11,10.53,9.96-.59-1.69Z"/><path d="M40.66,23.92v.77c-.56-.24-1.48-.78-1.77-1.14l-.47-.57c-2.31-2.83,3.56,2.62,2.24.95Z"/><path d="M42.83,25.36l-2.17-1.44-.52-1.36c1.37,1.02,2.01,1.78,2.7,2.8Z"/><path d="M45.86,26.18c.27.39,1.03.97,1.49,1.49l3.01,3.41c1.15,1.3,3.05,2.18,3.69,4.04l-.82-.03.06-.5-11.55-11.65c2.18.45,2.44,2.71,4.11,3.24Z"/><path d="M48.02,23.53c.13.2.44.48.82.79.44.92,1.57,2.35,2.23,2.98-.38-.13-1.08-.42-1.31-.67l-3.49-3.79c.72.24,1.25.45,1.74.69Z"/><path d="M55.16,36.23c-.21-.06-.73-.68-.74-.74.49.19.75.46.74.74Z"/><path d="M52.93,26.18l-2.6-1.87c-.18-.35-.78-.93-1.06-1.11.56-1.44,3.3,2.35,3.67,2.98Z"/><path d="M54.42,35.49l-.37-.37.37.37Z"/><path d="M53.68,37.01c-.08.19-.37.63-.54.52-.4-.25-2.64-2.23-2.44-2.79l2.98,2.27Z"/><path d="M46.6,30.64c-.88,0-1.72-1.17-1.86-1.86.47.39,1.48,1.38,1.86,1.86Z"/><path d="M53.23,35.08c.58.71,1.33,1.66,1.91,1.95-.02.79-1.04.3-1.46-.02.38-.91-1.35-1.09-1.87-2.65l1.42.71Z"/><path d="M50.7,34.74l-.39-.35.39.35Z"/><path d="M51.81,34.37l-.37-.37.37.37Z"/><path d="M42.14,26.18c-.64-.55-1.11-1.01-1.49-1.49.44.19,1.18.88,1.49,1.49Z"/><path d="M44,26.55c-.28-.28-.81-.66-1.17-1.19.77.21,1.15.62,1.17,1.19Z"/><path d="M47.35,29.9c-.7-.48-1.37-.94-1.86-1.86.7.13,1.86.98,1.86,1.86Z"/><path d="M51.44,34c-.33-.26-.72-.62-1.12-1.12.74.24,1.09.54,1.12,1.12Z"/><path d="M43.25,27.29c-.87-.23-.84-.58-1.12-1.12.32.28.67.63,1.12,1.12Z"/><path d="M58.46,31.86l-.39-.47c.1.03.35.37.39.47Z"/><path d="M54.07,27.32c-.32-.16-.86-.66-1.14-1.15.36.26.96.77,1.14,1.15Z"/><path d="M44.74,27.29l-.74-.74.74.74Z"/><path d="M44,28.04c-.35-.32-.59-.56-.74-.74l.74.74Z"/><path d="M45.49,28.04c-.21-.04-.47-.41-.74-.74.45.3.6.47.74.74Z"/><path d="M55.44,27.99l.83,1.55c-.89-.37-1.83-1.46-2.19-2.22l1.36.67Z"/><path d="M48.46,31.02c-.39-.27-1.11-.23-1.12-1.12.5.34.87.79,1.12,1.12Z"/><path d="M14.54,37.71L1.73,25.07c.16,1.36,1.37,2.11,2.33,3.1l2.91,3.01,2.93,3.04c1.09,1.13,2.6,1.92,3.06,3.52L1.74,26.58c-1.11.22,6.4,7.45,6.64,7.67l3.21,3c-.17.18-.45.54-.53.45l-.6-.66-1.96-2.14c-2.22-2.42-4.45-4.59-6.81-6.72.1.96.53,1.45,1.07,2l7.17,7.23c-3.99-2.62-6.37-6.39-9.93-9.3,1.28-2.67,1.31.07,1.14-3.31-.04-.78-.11-1.45.44-2.09l12.54,12.41c-.45-2-3.88-4.45-6.4-7.31-1.57-1.78-3.35-3.21-4.81-5.11l11.58,11.32c0-.71-.28-1.29-.75-1.76l-9.24-9.32c1.11.21,1.39.95,2.04,1.59l2.05,2.06,10.5,10.66c-1.23-.45-2.01-1.33-2.85-2.33l-.38-.45c-.07-.08-.3.05-.29.15.15,1.45,1.66,1.36,2.05,3.01l-2.15-1.66c.32.85.51,1.33.43,1.73L1.96,23.91c3.48,5.34,8.96,8.37,12.58,13.8Z"/><path d="M36.18,35.86c-.15-.15-.47-.43-.74-.74.24.18.44.34.74.74Z"/><path d="M36.6,36.28l-.42-.43.42.43Z"/><path d="M32.83,31.39v1.12c-3.35-3.06-6.5-6.27-9.82-9.71,1.94,1.02,3.39,2.7,4.82,4.29l3.03,3.35c.43.48,1.13.85,1.96.96Z"/><path d="M35.06,33.25c-.6-.45-1.58-1.17-2.23-1.86l-8.19-8.68c3.62,2.76,6.29,6.05,9.63,9.14.32.3.53,1.11.79,1.4Z"/><path d="M36.6,36.28l1.06-.45h.82c1.22.02-12.15-12.07-12.24-13.04,4.23,3.45,7.6,7.23,11.25,10.93l3.59,3.64-2.03-.02-.81-.37c-.17-.08-.45.38-.71.6l-.92-1.29Z"/><path d="M37.66,35.83l-2.6-2.58c1.27.48,2.41,1.51,2.6,2.58Z"/><path d="M35.44,35.11c-1.07-.84-1.92-1.71-2.61-2.61,1.02.93,1.85,1.73,2.61,2.61Z"/><path d="M20.92,28.41c-1.22-1.03-2.2-1.98-3.36-2.65l-2.18-3.11c1.27.85,5.11,4.77,5.54,5.76Z"/><path d="M22.12,29.51c-.33-.11-1.03-.72-1.2-1.1.51.09,1.13.45,1.2,1.1Z"/><path d="M21.66,30.62c-1.58-1.29-2.94-2.66-4.1-4.07,1.54,1.38,2.92,2.67,4.1,4.07Z"/><path d="M17.56,25.76v.79s-3.28-2.95-3.28-2.95c-.13-.12-.55-.62-.41-.64,1.4-.21-.16.55,3.69,2.8Z"/><path d="M21.66,30.62c.23-.16.54-.29.52-.47l-.07-.63.97-.85,8.61,8.64c-3.62-1.88-4.99-5.53-8.32-7.26.17,1.56,7.31,6.77,6.42,7.37l-6.47-6.35-1.34.27c-.19.04-.3-.62-.33-.72Z"/><path d="M33.29,37.59c-4.29-3.49-8.02-7.7-12.04-11.76-.82-1.22-2.52-1.6-2.77-3.29l14.81,15.05Z"/><path d="M23.95,37.61c-3.06-2.51-5.92-5.32-8.67-8.72,3.06,2.51,5.92,5.32,8.67,8.72Z"/><path d="M48.8,37.52c-5.04-4.47-10.02-9.45-14.79-14.8,5.17,4.53,9.85,9.34,14.79,14.8Z"/><path d="M2.01,34.86l-.57-.5-.48-.78c-.14-.22.28-.73.38-.98l-.41-.71c-.11-.19.35-.6.35-.75l-.36-1.36,7.58,7.82c-2.09-.91-2.99-2.82-4.53-4.14l-2.47-2.12,5.24,6.38-5.2-4.92c.55,2.26,2.93,2.53,3.74,4.9l-3.27-2.83Z"/><path d="M1.44,34.36l.57.5c.57.97,1.04,1.51,1.9,2.62H1.26s-.03-2.25-.03-2.25c0-.16-.35-.77-.18-.8l.4-.07Z"/><path d="M15,28.69c-2.19-1.7-4.13-3.66-6-5.97,2.32,1.59,4.22,3.51,6,5.97Z"/><path d="M22.46,34.64c-4.16-3.63-8.05-7.64-11.92-11.91,4.28,3.58,8.12,7.44,11.92,11.91Z"/><path d="M17.51,32.34c.65.89,1.39,1.39,1.84,2.37l-11.75-11.9c3.77,2.96,6.61,6.27,9.91,9.53Z"/><path d="M22.45,28.32c-2.06-1.58-3.87-3.42-5.63-5.59,2.2,1.46,3.98,3.26,5.63,5.59Z"/><path d="M40.47,35.84l-6.38-6.44-3.52-3.58c-.97-1.01-2.4-1.71-2.78-3.28l15,14.99c-1-.09-1.57-.95-2.31-1.69Z"/><path d="M45.42,36.61c.03.09.12.23.39.4l-.24.63c-.17.46-5.28-5.94-6.76-6.29,1.09,2.88,4.14,3.57,5.14,6.38l-9.29-9.37-5.5-5.6,8.99,8.21c-.14-.54-.64-1.34-1.13-1.85l-6.09-6.21c1.77.79,2.73,2.37,4.07,3.71l5.82,5.79c1.38,1.37,2.94,3.05,4.6,4.2Z"/><path d="M45.81,37.01l-.39-.4c-.13-.42-.68-1.28-.97-1.57l-12.05-12.1c.78-.21,1.05.55,1.54,1.04l9.81,9.9,3.83,3.74c-.79-.19-1.22-.36-1.77-.61Z"/><path d="M25.26,37.64l-2.56-2.5c1.27.24,1.95.93,2.56,2.5Z"/><path d="M22.28,37.64l-2.56-2.5c1.27.24,1.95.93,2.56,2.5Z"/><path d="M26.85,37.54c-.85-.41-1.61-1.36-2.38-2.28l-1.68-1.99c1.51,1.21,2.7,2.3,4.07,4.27Z"/><path d="M34.86,36.19l-13.43-13.29c1.39.18,2.07,1.54,2.96,2.43l12.08,12.13c-.9.35-1.15-.62-1.61-1.28Z"/><path d="M26.49,29.5c-.67-.85-1.6-1.61-2.43-2.37l-2.14-1.98-2.01-2.51,8.52,8.33c-.95,0-1.36-.73-1.94-1.47Z"/><path d="M19.59,36.23c.58.41,1.4.67,1.07,1.37l-14.71-14.68c1.02-.22,1.33.84,1.92,1.44l11.72,11.87Z"/><path d="M34.78,37.42c.9,1.8-6.45-6.21-5.99-6.01,2.04,1.82,3.84,3.63,5.99,6.01Z"/><path d="M20.09,30.95l-2.5-2.55-5.52-5.68c3.75,3.11,6.95,6.6,10.34,10.07-.71-.48-1.66-1.17-2.32-1.84Z"/><path d="M28.31,37.31c-1.84-1.61-3.51-3.27-5.12-5.15,1.91,1.54,3.53,3.27,5.12,5.15Z"/><path d="M58.56,55.17l.37.37c.27.65.27,1.19,0,1.54l-.37-.43c-.02-.11-.08-.38-.12-.49-.06-.17-.45-.2-.63-.26-1.18-2.14-2.91-3.51-5-5.36l.16,1.17c-2.62-2.19-4.9-4.57-7.05-6.93l6.33,5.41c-1.02-2.49-3.81-3.02-4.47-5.57l10.78,10.53Z"/><path d="M55.95,54.8l1.86,1.12.08.5c.02.12.29.13.67.25l.37.43.27,2.9-1.7-1.41.49,1.22c-1.18-.03-1.8-1.1-1.95-1.99l1.46.67-5.4-5.79-7.62-7.88c5.01,3.99,8.92,9.53,13.89,13.27l-2.41-3.27Z"/><path d="M55.95,54.8c-.31-.18-.73-.64-1.12-1.12l.76.19c.19.05.24.54.36.93Z"/><path d="M54.83,53.68l-.37-.37.37.37Z"/><path d="M54.46,53.31c-.53-.37-1.01-.86-1.49-1.58.49.41,1.42.49,1.49,1.58Z"/><path d="M53.27,46.6l.82.75c.72,1.42,3.17,3.92,4.47,4.84l.66.98c.12.18-.42.62-.47.75l.53,1.02c.08.16-.23.47-.34.6l-.37-.37-9.39-10.42,9.44,8.85-7.82-8.67,2.49,1.67Z"/><path d="M58.64,45.9l-.43-.48c.29-.34.57-.65.71-.47.13.16.54.65.37.71l-.66.24Z"/><path d="M58.21,45.42l.43.48.79,1.69-1.31-.61,1.24,1.88-2.38-1.59,2.38,3.52c-1.7-.99-3.78-4.94-5.26-4.92l-.37-.37c-.04-.13.03-.79.15-.73l.64.34,2.51,2.58c.1-1.75-1.26-1.69-1.74-3.1l2.88,2.41-1.29-2.06,1.35.49Z"/><path d="M54.09,47.35c-.1-.2-.42-.48-.82-.75l-1.13-1.82,1.57.71.37.37c.12.39.45,1.04.82,1.41l4.05,4.02c.14.14.33.58.39.72s-.67.27-.8.18c-.18-.26-.35-1-.6-1.24"/><path d="M53.3,59.74c-5.39-4.71-10.32-9.73-15.16-15.11,5.39,4.71,10.32,9.73,15.16,15.11Z"/><path d="M46.97,59.74c-5.26-4.59-10.07-9.42-14.9-14.88,5.16,4.58,10.11,9.55,14.9,14.88Z"/><path d="M48.45,59.74c-5.26-4.59-10.07-9.42-14.9-14.88,5.16,4.58,10.11,9.55,14.9,14.88Z"/><path d="M54.78,59.74c-5.26-4.59-10.07-9.42-14.9-14.88,5.16,4.58,10.11,9.55,14.9,14.88Z"/><path d="M26.35,57.36c.74.94,1.43,1.69,1.91,2.52l-14.83-15.01,12.92,12.49Z"/><path d="M39.07,59.67c-5.45-4.78-10.26-9.62-14.84-14.88,5.26,4.78,10.2,9.67,14.84,14.88Z"/><path d="M12.59,59.69l-2.82-2.3,1.18,2.29c-1.16-.91-2.03-1.75-2.95-2.69l-7.23-7.4c3.83,1.8,5.03,6.01,9,7.93L.84,47.78c2.66,2.28,5.16,4.86,7.68,7.49.94.98,1.54,1.8,3.01,2.71l-.93-2.05,1.73,1.59c-.18.19-.72.58-.59.79l.85,1.38Z"/><path d="M56.38,59.89c-5.18-4.57-10.07-9.51-14.99-15.03,5.14,4.59,10.09,9.49,14.99,15.03Z"/><path d="M37.59,59.67c-4.38-3.7-8.11-7.46-11.82-11.84,4.13,3.63,8.13,7.6,11.82,11.84Z"/><path d="M14.99,49.58l-.73-.74.73.74Z"/><path d="M13.51,46.98l.74,1.86c-1.54-1.33-2.81-2.6-4.15-4.06,1.38-.44,2.05,2.7,3.41,2.2Z"/><path d="M14.99,49.58l1.07-.22-2.54-2.38-1.81-2.36c1.65.96,2.69,2.5,4.02,3.83l3.92,3.94,1.88,1.89c1.67,1.68,3.31,3.32,5.06,5.27-3.7-2.71-6.29-6.68-10.2-9.5,2.23,4.15,6.32,6.03,8.5,9.69-3.43-3.21-6.05-6.62-9.82-9.46,2.03,3.91,6.22,5.75,8.28,9.52l-11.97-12.17c-.91-.92-1.86-1.66-2.71-2.82.46-.57,6.04,7.04,6.32,4.76Z"/><path d="M41.25,56.3c.17,1.6,2.37,1.6,2.33,3.58l-8.52-8.68c2.33,1.12,3.21,3.74,5.82,4.71l-10.25-11.12c2.52,2.19,4.86,4.66,7.33,7.16l7.62,7.7c-1.89-.46-2.32-2.47-4.32-3.35Z"/><path d="M22.15,59.63c-1.84-.65-2.67-2.28-4.17-3.41l2.42,3.72-14.83-15.05c4.38,3.29,7.7,7.71,12.21,11.56-.36-2.06-2.93-2.27-3.44-4.65l7.8,7.82Z"/><path d="M27.31,55.6c-2.82-1.81-4.78-4.4-7.19-6.67l-3.61-4.13,10.8,10.8Z"/><path d="M21.76,51.71c-2.44-1.9-4.69-4.1-6.81-6.86,2.44,1.9,4.69,4.1,6.81,6.86Z"/><path d="M40.59,59.66c-.92-.2-7.09-6.37-7.26-7.5,2.49,2.4,4.88,4.64,7.26,7.5Z"/><path d="M30.23,59.12l-2.95-3.18c2.33.64,2.48,3.03,4.76,3.39l-14-14.53,15.03,14.81c-.95.75-2.08.34-2.84-.48Z"/><path d="M19.28,44.74c-.05-1.28,6.71,5.81,5.66,5.64l-5.66-5.64Z"/><path d="M26.96,56.93c-1.81-1.29-3.46-2.88-4.94-5,1.81,1.29,3.46,2.88,4.94,5Z"/><path d="M11.57,52.4c-2.65-2.23-5.25-4.8-7.72-7.75,2.83,2.21,5.3,4.59,7.72,7.75Z"/><path d="M4.97,59.71c-1.72-.93-3.03-2.25-4.14-4.09,1.53,1.12,2.85,2.46,4.14,4.09Z"/><path d="M25,48.86c-1.47-1.33-2.74-2.6-4.1-4.16,1.88.9,3.2,2.38,4.1,4.16Z"/><path d="M42.07,59.67c-3.5-2.68-5.97-5.91-8.76-8.92,3.07,2.83,6.08,5.7,8.76,8.92Z"/><path d="M55.55,57.34c-2.73-1.36-3.95-3.96-6.25-5.6l-6.38-7,12.62,12.6Z"/><path d="M6.42,59.73c-2.08-1.62-3.96-3.27-5.62-5.57,2.08,1.55,3.9,3.4,5.62,5.57Z"/><path d="M36.53,44.73c.82,0,8.21,7.37,8.18,8.23l-8.18-8.23Z"/><path d="M46.54,56.41l-3.21-3.18-6.33-6.25c-.63-.73-1.23-1.33-1.8-2.23l14.91,14.84c-1.8-.26-2.45-2.08-3.57-3.19Z"/><path d="M25.46,47.61c-1.06-.57-1.94-1.43-2.68-2.76,1.06.57,1.94,1.43,2.68,2.76Z"/><path d="M1.37,59.71l-.54-.55c-.14-.14-.38-.64-.19-.59l1.22.32-.98-1.83c.99.81,1.75,1.57,2.56,2.49l-1.11-.42c-.15-.06-.16.01-.96.58Z"/><path d="M13.49,51.18c-2.35-1.82-4.39-3.81-6.36-6.33,2.34,1.79,4.41,3.88,6.36,6.33Z"/><path d="M33.12,56.63c1.07,1.09,2.14,2.07,2.97,3.22l-10.46-10.47c1.21.57,2.23,1.73,3.21,2.76l4.29,4.49Z"/><path d="M29.71,59.72c-.91-.58-1.7-1.37-2.47-2.33,1.17.31,1.93,1.1,2.47,2.33Z"/><path d="M15.56,59.71l-5.59-5.45-2.6-2.63c-1.88-1.91-3.68-3.72-5.7-5.59.9,3.01,3.92,3.59,5,6.35l-5.79-5.66c.23-.26.62-.57.55-.72l-.52-1.13.93.35c.21.08.47-.08,1.06-.37l2.97,3.09,11.6,11.84c-.72.18-1.08-.64-1.44-1.19-4.62-4.4-8.68-9.08-13.75-13.31,3.71,5.58,9.26,8.95,13.27,14.42Z"/><path d="M10.21,55.78c-1.02-.69-1.93-1.4-2.71-2.73,1.07.54,1.95,1.42,2.71,2.73Z"/><path d="M3.69,53.4l2.69,3.25c-1.97-1.79-3.73-3.54-5.51-5.57,1.02.65,2.14,1.49,2.83,2.32Z"/><path d="M51.31,59.76l-6.21-6.32c2.37,1.69,4.62,3.72,6.21,6.32Z"/><path d="M13.87,54.44c1.71,1.8,4.76,4.16,4.74,5.22-2.31-2.2-4.64-4.46-6.66-6.91.74.55,1.38,1.13,1.92,1.69Z"/><path d="M34.51,59.51c-1.02.36-1.27-.69-1.78-1.22l-7.24-7.55,9.02,8.77Z"/><path d="M2.18,53.94l-1.2-.28c-.27-.06.09-1.37.25-1.13l.95,1.41Z"/><path d="M34.68,50.66c-2.12-1.87-4.13-3.77-5.8-5.96,2.31,1.91,4.08,3.87,5.8,5.96Z"/><path d="M14.22,59.58c-.84.03-1.63-.79-1.3-1.44l1.3,1.44Z"/><path d="M7.72,59.74l-1.34-1.11c.72-.19,1.16.18,1.34,1.11Z"/><path d="M32.77,51.8l-3.47-3.16-3.51-3.8c2.53,2.08,4.83,4.39,6.98,6.96Z"/><path d="M6.24,58.2l-3.9-4.07c1.55,1.05,2.85,2.25,3.9,4.07Z"/><path d="M9.31,59.56c-.93-.73-1.77-1.54-2.38-2.58.95.83,1.62,1.61,2.38,2.58Z"/><path d="M32.76,50.25c-1.78-1.58-3.44-3.23-5.06-5.08,1.8,1.52,3.41,3.12,5.06,5.08Z"/></svg>