<?xml version="1.0" encoding="UTF-8"?><svg id="Layer_1" xmlns="http://www.w3.org/2000/svg" viewBox="0 0 60 60"><defs><style>.cls-1{fill:#ed3371;}</style></defs><path class="cls-1" d="M50.58,16.37c-.61.46-1.34.6-2.18.04.74-.11,1.71-.2,2.18-.04Z"/><path class="cls-1" d="M45.24,16.94l.53.53c-1.14.35-2.54.36-3.59.03,1.26-.16,2.29-.17,3.06-.56Z"/><path class="cls-1" d="M47.87,16.41c-.23.11-.58.12-1.05,0h1.05Z"/><path class="cls-1" d="M46.56,9.83c-.93.58-1.82.35-2.63,0,.71-.4,1.54-.29,2.63,0Z"/><path class="cls-1" d="M47.08,9.83h-.53s.53,0,.53,0Z"/><path class="cls-1" d="M52.17,16.93c3.27,1.14-6.47,1.22-5.87.53,1.87-.18,3.83-.02,5.87-.53Z"/><path class="cls-1" d="M46.29,16.41l-1.05.53-.53-.53c.43-.26,1.07-.23,1.58,0Z"/><path class="cls-1" d="M43.92,9.83c-.68.38-1.59.19-2.15-.05.63-.32,1.24-.35,2.15.05Z"/><path class="cls-1" d="M48.22,7.22c-1.43-.55-3.29-.63-4.81-.17l-.78-.78,4.44-.18-3.24-.44c.29-.62,1.57-1.41,2.27-.94,3.08,2.06-.85.13,2.43,1.84.18.1-.22.59-.31.66Z"/><path class="cls-1" d="M42.08,16.41c-.42,0-1.2.13-1.58,0,.4-.31.93-.43,1.58,0Z"/><path class="cls-1" d="M46.29,17.46h-.53s.53,0,.53,0Z"/><path class="cls-1" d="M45.24,15.36c-.83.26-2.82.1-3.69,0,.65-.69,2.89-.42,3.69,0Z"/><path class="cls-1" d="M51.48,15.87c.32.1,1.03.03,1.16-.04l1.17.68-1.65.41-1.59-.56.9-.5Z"/><path class="cls-1" d="M54.12,14.8l.62.1c-.01.13-.03.32-.06.45-.04.17-.45.2-.72.25l-1.32.25c-.22-.15-.73-.2-1.16.04-2.72-.88-1.73-.03-4.66-.52,3.46-1.03,4.47.18,7.3-.56Z"/><path class="cls-1" d="M48.14,9.83c-.13.14-.47.41-.62.29-.11-.09-.35-.24-.44-.29.23-.02.62-.03,1.05,0Z"/><path class="cls-1" d="M46.82,16.41h-.53s.53,0,.53,0Z"/><path class="cls-1" d="M43.41,7.05c1.45.34,3.08.29,4.81.17.24.09.91.2,1.11.25s.03.57-.05.77c0-.05-.5-.08-.62.01-2.28-.63-4.6-.18-7.19-.61l1.93-.59Z"/><path class="cls-1" d="M48.19,8.74c-1.12.77-5.82-.52-6.95.6l-1.04-.92,6.62-.07c.42,0,1.14.15,1.37.39Z"/><path class="cls-1" d="M41.24,9.34l.53.44-1.54.79,12.72.31c-4.53,1.2-8.93-.4-13.23.56h-.6s-.78-.39-.78-.39c-.1-.05.22-.42.33-.43l.55-.04.87-.05c.14,0-.13-.39-.27-.53l-.35-.35,1.77-.3Z"/><path class="cls-1" d="M39.12,11.42h.6c4.42.69,8.98.37,13.72.19l2,2.02c.1.1.32.81.19.86l-.89.39-.62-.1c-5.51-.96-12.88.19-19.12-.65l19-.35c-.94-.31-1.93-.41-2.97-.42l-15.01-.08c.99-.7,2.25-.59,3.42-.55,4.55.16,8.9.15,13.46-.06-.99-.29-2.05-.36-3.18-.36l-12.62-.06c.62-.49,1.28-.67,2.02-.84Z"/><path class="cls-1" d="M48.67,8.24h.62c.82.1,1.36.44,1.44,1.05h-.49s-1.57-.05-1.57-.05l-.48-.5c.24-.26.38-.43.48-.5Z"/><path class="cls-1" d="M46.82,15.36c-.45.13-1.27.16-1.58,0,.8-.24.98-.1,1.58,0Z"/><polygon class="cls-1" points="48.67 9.25 49.31 9.92 48.14 9.83 48.67 9.25"/><path class="cls-1" d="M43.66,16.41h-1.58s1.58,0,1.58,0Z"/><path class="cls-1" d="M41.03,15.36c-1.85.23-4.39-.09-6.32.53-.26-.2-.78-.65-.86-.78,1.84-.26,5.56-.26,7.18.26Z"/><path class="cls-1" d="M48.4,16.41h-.53s.53,0,.53,0Z"/><path class="cls-1" d="M34.71,15.88l4.27.14c.41.01,1.14.26,1.52.39-1.89.55-5.84-.34-6.26.55h-1.18c-.15-.03-.51-.7-.37-.74,1.72-.44.48,0,2.01-.34Z"/><polygon class="cls-1" points="50.24 9.3 50.73 9.29 51.91 10.21 49.31 9.92 50.24 9.3"/><path class="cls-1" d="M44.71,16.41c-.23.14-.56.14-1.05,0h1.05Z"/><path class="cls-1" d="M33.07,16.96h1.18s7.26.53,7.26.53l-9.83.18c.33-.3.76-.49,1.39-.71Z"/><path class="cls-1" d="M41.56,15.36c-.25,0-.44.03-.53,0,.25,0,.44-.01.53,0Z"/><path class="cls-1" d="M5.12,45.64l19.12.31-18.55.53,15.01.74-15.23.11c-.3-.96-.56-1.38-1.14-2.07,0,0,.49-.42.67-.57l20.18.17c-4.02.72-7.72.14-11.54.25-2.76.56-5.43-.78-8.53.53Z"/><path class="cls-1" d="M43.96,26.26c-6.97.47-13.78.46-21.06,0,6.89-.41,13.9-.4,21.06,0Z"/><path class="cls-1" d="M37.38,32.84c-6.97.47-13.78.46-21.06,0,6.89-.41,13.9-.4,21.06,0Z"/><path class="cls-1" d="M30.8,39.42c-6.97.47-13.78.46-21.06,0,6.89-.41,13.9-.4,21.06,0Z"/><path class="cls-1" d="M38.33,31.7c-4.8.78-9.26.17-13.89.4-2.32-.46-4.59.2-7.06-.45l20.95.05Z"/><path class="cls-1" d="M43.89,19.71c-4.74.38-9.58.48-14.53-.07,4.86-.34,9.49-.37,14.53.07Z"/><path class="cls-1" d="M36.23,33.95c-7.2.36-14.04.42-21.04-.06,7.12-.41,14.07-.37,21.04.06Z"/><path class="cls-1" d="M28.68,21.41l8.65.24c3.76.1,5.41-.37,8.62.32l-18.73.02,1.18-.58c.15-.07.12-.49.16-.94l12.01.09c-3.92,1.31-7.71-.37-11.89.85Z"/><path class="cls-1" d="M21.16,41.4c2.54.05,4.86.14,7.27.33l-21.15-.06c3.71-.71,7.36-.4,11.12-.33l2.77.05Z"/><path class="cls-1" d="M38.26,27.13c1.5.33,2.84-.68,4.28.44l-21.04-.15c5.55-.76,11.01-.15,16.76-.29Z"/><path class="cls-1" d="M29.29,40.55c-6.68.32-13.75.37-20.93-.04,6.85-.42,13.58-.45,20.93.04Z"/><path class="cls-1" d="M11.29,51.95h-.53s-1.09-.57-1.09-.57c-.18-.11.4-.58.5-.76h-1.1c-.17,0-.6-.31-.49-.44.07-.09.24-.26.46-.47l-1.73-.64,1.87.04,11.52.18c-1.97.93-11.12-.7-11.52.85l10.59.19c-1.73,1-3.54.16-5.33.29l-4.3.31,8.47.75-7.34.29Z"/><path class="cls-1" d="M11.29,51.95c1.87,1.14,3.9-.38,6.01.83l-5.45.14c-.24,0-.87-.11-.92-.29l-.17-.68h.53Z"/><path class="cls-1" d="M31.75,38.25c-3.72.86-7.17.22-10.76.34l-3.93-.09h-3.12c-1.02,0-2.01.06-3.11-.29l20.92.04Z"/><path class="cls-1" d="M51.63,18.59c-2.77.52-5.47.5-8.46.02,2.75-.35,5.51-.33,8.46-.02Z"/><path class="cls-1" d="M42.55,18.52c-2.54.69-4.93.41-7.38.23-1.47-.19-2.96.7-4.6-.28l11.98.05Z"/><path class="cls-1" d="M33.66,28.33l7.77-.03-1.04.62c-.18.11-.16.48-.22.98-.99-.06-2.26-.19-3.36-.18-5.7.04-11.23-.28-17.06.27,6.01,1.32,11.71-.18,17.63.76-1.9.23-3.86.1-5.85.08l-13.04-.14,1.04-.53c.19-.1.16-.39.27-1.02,1.31.04,2.95.26,4.36.24,5.37-.11,10.5.43,16-.3l-19.63-.68c3.6-.64,6.84-.06,10.25-.06h2.89Z"/><path class="cls-1" d="M37.21,25.42c-3.08.1-5.89.03-8.85-.12-1.45-.07-3.1.62-4.48-.31l21.17.04c-2.52.93-5.1.3-7.84.39Z"/><path class="cls-1" d="M28.26,34.96c2.36.04,4.52-.29,6.86.18l-21.16-.05c3.38-.78,6.49-.26,9.69-.21l4.62.08Z"/><path class="cls-1" d="M50.57,19.61c-2.06.55-4.08.54-6.35.03,2.05-.3,4.11-.29,6.35-.03Z"/><path class="cls-1" d="M27.25,42.63c-.35.84-1.29.28-2.03.27l-18.88-.11c1.92-.8,3.71-.53,5.51-.24l15.41.08Z"/><path class="cls-1" d="M32.82,37.12c-1.21.77-2.73.49-4.16.39-1.59-.11-3.12-.08-4.7-.1l-12.07-.16c1.3-.57,2.48-.47,3.64-.22l17.3.08Z"/><path class="cls-1" d="M49.46,20.66c-1.39.76-2.71.47-4.17,0,1.35-.21,2.75-.22,4.17,0Z"/><path class="cls-1" d="M13.01,54.11l2.11.46-.82.82c-.19.19-.95-.25-1.15-.48l-1.31-1.54c1.61.07,2.86.11,4.5.42l-3.32.33Z"/><path class="cls-1" d="M44.82,20.89c-1.24.12-2.59.12-4.11.04,1.25-.68,2.41-.67,4.11-.04Z"/><path class="cls-1" d="M21.29,43.96l-5.27.04h-3.4c-2-.11-3.86,0-5.82-.37l19.55.04c-1.57,1.08-3.38.27-5.05.28Z"/><path class="cls-1" d="M33.86,36.05c-.89,1.02-2.2.27-3.37.27l-17.69-.1c2.17-.84,4.43-.32,6.66-.3l14.4.13Z"/><path class="cls-1" d="M31.72,22.78l15.22.15-1.12.57c-.14.07-.1.67-.14.94l-3.56-.18-9.27-.07h-7.64c6.81-.99,13.5.53,20.52-.74-6.49-.74-12.51-.1-19.02-.4-.32.68-.13.17.14-.49l4.88.22Z"/><path class="cls-1" d="M15.88,47.98c2.09-.08,3.98.07,5.87.33l-15.44-.14c3.08-.43,6.19-.06,9.57-.19Z"/><path class="cls-1" d="M39.32,30.3c.02.16-.3.89-.49.79s-.95-.5-.87-.45l1.36-.34Z"/><path class="cls-1" d="M48.32,21.47c-.21.41-.42.92-.56.87l-1.13-.42,1.69-.45Z"/><path class="cls-1" d="M22.87,47.29h-1.52c.25-.6.77-.67,1.52,0Z"/><path class="cls-1" d="M5.4,43.93c-.1-.02.42-.4.5-.33.13.1.67.6.51.56l-1.01-.23Z"/><path class="cls-1" d="M48.08,52.09v.53c-.27.65-.65,1.03-1.09,1.09l.04-.56c.06-.09.21-.32.26-.43.08-.16-.18-.47-.26-.62.68-2.35.42-4.54.25-7.33l-.71.94c-.31-3.4-.23-6.7-.08-9.88l.65,8.3c1.04-2.48-.56-4.83.77-7.1l.17,15.06Z"/><path class="cls-1" d="M46.5,49.98l.53,2.11-.3.41c-.07.1.11.3.3.64l-.04.56-1.86,2.24-.21-2.2-.52,1.21c-.81-.85-.49-2.05.03-2.78l.56,1.5.28-7.92.18-10.96c.72,6.36-.43,13.05.44,19.2l.61-4.02Z"/><path class="cls-1" d="M46.5,49.98c-.09-.35-.06-.97,0-1.58l.4.67c.1.16-.21.55-.4.91Z"/><path class="cls-1" d="M46.5,48.4v-.53s0,.53,0,.53Z"/><path class="cls-1" d="M46.5,47.87c-.11-.63-.11-1.32.07-2.17.06.64.66,1.35-.07,2.17Z"/><path class="cls-1" d="M50.4,42.29l.05,1.1c-.49,1.52-.53,5.01-.26,6.58l-.23,1.16c-.04.22-.74.14-.86.2l-.35,1.1c-.06.18-.5.17-.67.18v-.53s.73-14,.73-14l.42,12.93.6-11.66.57,2.94Z"/><path class="cls-1" d="M54.69,45.59l.04-.64c.45-.04.86-.06.83.17-.02.2-.08.84-.24.77l-.63-.3Z"/><path class="cls-1" d="M54.73,44.95l-.04.64-.64,1.75-.49-1.36-.45,2.2-.56-2.81-.81,4.17c-.51-1.9.82-6.17-.24-7.19v-.53c.06-.12.58-.54.62-.41l.21.69-.05,3.6c1.31-1.16.31-2.09.96-3.42l.33,3.74.55-2.37.61,1.3Z"/><path class="cls-1" d="M50.45,43.4c.07-.21.04-.64-.05-1.1l.49-2.08.61,1.61v.53c-.19.36-.42,1.06-.41,1.58l.02,5.71c0,.2-.17.64-.23.79s-.66-.28-.69-.44c.06-.31.46-.95.45-1.31"/><path class="cls-1" d="M41.13,51.6c-.48-7.14-.42-14.18-.04-21.4.48,7.14.42,14.18.04,21.4Z"/><path class="cls-1" d="M36.65,47.12c-.47-6.97-.46-13.78,0-21.06.41,6.89.4,13.9,0,21.06Z"/><path class="cls-1" d="M37.71,48.17c-.47-6.97-.46-13.78,0-21.06.41,6.89.4,13.9,0,21.06Z"/><path class="cls-1" d="M42.18,52.65c-.47-6.97-.46-13.78,0-21.06.41,6.89.4,13.9,0,21.06Z"/><path class="cls-1" d="M23.76,30.86c-.15,1.19-.18,2.21-.43,3.13l.13-21.09.31,17.97Z"/><path class="cls-1" d="M31.12,41.49c-.47-7.24-.45-14.06.03-21.02.34,7.1.38,14.05-.03,21.02Z"/><path class="cls-1" d="M12.38,22.78l-.37-3.63-.78,2.45c-.18-1.46-.2-2.67-.18-3.99l.12-10.35c1.44,3.99-.69,7.81.76,11.97l.57-13.19c.26,3.49.21,7.08.13,10.73-.03,1.36-.18,2.36.22,4.05l.79-2.11.1,2.35c-.26,0-.92-.1-.97.14l-.37,1.58Z"/><path class="cls-1" d="M43.2,53.89c-.43-6.89-.4-13.85.03-21.23.39,6.88.43,13.84-.03,21.23Z"/><path class="cls-1" d="M30.08,40.44c-.48-5.71-.46-11.01.02-16.74.35,5.49.37,11.12-.02,16.74Z"/><path class="cls-1" d="M21.23,17.33v-1.04s0,1.04,0,1.04Z"/><path class="cls-1" d="M22.02,14.44l-.79,1.84c-.15-2.03-.15-3.82-.06-5.81,1.29.67-.45,3.36.85,3.97Z"/><path class="cls-1" d="M21.23,17.33l.91.6-.12-3.48.39-2.94c.49,1.84.14,3.67.13,5.55v5.56s-.02,2.67-.02,2.67c0,2.37,0,4.68-.15,7.31-.7-4.53.27-9.17-.49-13.93-1.36,4.51.2,8.74-.84,12.86-.15-4.69.4-8.95-.25-13.63-1.33,4.2.34,8.46-.88,12.59l.14-17.07c.01-1.29-.14-2.49.08-3.91.73-.08-.71,9.25,1.1,7.83Z"/><path class="cls-1" d="M35.04,40.65c-1.01,1.26.54,2.8-.88,4.18l.11-12.16c.86,2.44-.37,4.92.78,7.44l.61-15.11c.23,3.33.14,6.73.12,10.24l-.06,10.83c-1.01-1.66.11-3.39-.69-5.42Z"/><path class="cls-1" d="M19.18,29.5c-.84-1.77-.27-3.5-.53-5.36l-.92,4.35.15-21.13c.77,5.42,0,10.9.46,16.81,1.21-1.71-.47-3.68.86-5.71v11.05Z"/><path class="cls-1" d="M25.69,30.3c-.71-3.27-.26-6.49-.37-9.8l.37-5.47v15.27Z"/><path class="cls-1" d="M24.5,23.62c-.38-3.07-.42-6.22.04-9.67.38,3.07.42,6.22-.04,9.67Z"/><path class="cls-1" d="M32.2,42.56c-.51-.8-.51-9.52.17-10.44.06,3.46.17,6.73-.17,10.44Z"/><path class="cls-1" d="M25.25,34.85l.17-4.33c1.2,2.1-.39,3.89.97,5.76l.37-20.18.16,21.1c-1.2-.14-1.71-1.24-1.67-2.35Z"/><path class="cls-1" d="M27.69,16.94c.88-.94.64,8.86.01,8v-8Z"/><path class="cls-1" d="M24.5,30.99c-.37-2.2-.41-4.48.04-7.03.37,2.2.41,4.48-.04,7.03Z"/><path class="cls-1" d="M16.82,16.9c-.29-3.45-.32-7.11.02-10.94.43,3.57.51,7-.02,10.94Z"/><path class="cls-1" d="M6.98,17.41c-.56-1.88-.55-3.73-.03-5.82.29,1.88.27,3.76.03,5.82Z"/><path class="cls-1" d="M28.82,23.9c-.1-1.98-.1-3.77.04-5.84.69,1.96.57,3.95-.04,5.84Z"/><path class="cls-1" d="M33.24,43.61c-.58-4.37-.04-8.41.11-12.5.17,4.18.27,8.33-.11,12.5Z"/><path class="cls-1" d="M44.42,51.49c-.97-2.89,0-5.59-.46-8.37l.44-9.46.02,17.84Z"/><path class="cls-1" d="M7.99,18.44c-.33-2.61-.49-5.11-.03-7.91.38,2.57.35,5.16.03,7.91Z"/><path class="cls-1" d="M39.88,29.13c.59.58.6,11.02-.04,11.6l.04-11.6Z"/><path class="cls-1" d="M38.71,44.46l-.02-4.52-.06-8.89c.07-.96.07-1.81.31-2.85l.04,21.03c-1.09-1.46-.26-3.2-.27-4.78Z"/><path class="cls-1" d="M30.02,23.34c-.35-1.15-.36-2.38.06-3.85.35,1.15.36,2.38-.06,3.85Z"/><path class="cls-1" d="M4.43,14.86v-.77c0-.19.19-.72.29-.56l.63,1.09.6-1.99c.13,1.28.13,2.35.05,3.57l-.49-1.09c-.06-.14-.12-.1-1.09-.27Z"/><path class="cls-1" d="M19.03,17.4c-.37-2.95-.41-5.8-.02-8.98.39,2.92.37,5.86.02,8.98Z"/><path class="cls-1" d="M29.06,35.13c-.01,1.53.05,2.98-.18,4.38v-14.8c.46,1.26.36,2.8.33,4.22l-.15,6.21Z"/><path class="cls-1" d="M24.47,34.91c-.23-1.06-.24-2.17-.1-3.39.6,1.04.59,2.14.1,3.39Z"/><path class="cls-1" d="M14.47,24.9l-.1-7.81.03-3.7c.02-2.68.03-5.23-.08-7.98-1.49,2.77.23,5.31-.96,8.03l-.09-8.1c.35-.02.84.03.89-.12l.43-1.17.41.9c.09.21.39.28,1.01.48l-.09,4.29-.16,16.57c-.63-.39-.31-1.22-.17-1.86-.15-6.38.28-12.56-.31-19.13-1.33,6.57.22,12.88-.81,19.58Z"/><path class="cls-1" d="M13.46,18.33c-.23-1.21-.38-2.36.01-3.84.38,1.14.37,2.39-.01,3.84Z"/><path class="cls-1" d="M10.54,12.04l-.4,4.2c-.13-2.66-.14-5.14.04-7.84.26,1.18.46,2.57.36,3.64Z"/><path class="cls-1" d="M39.71,50.21l.08-8.86c.48,2.87.63,5.9-.08,8.86Z"/><path class="cls-1" d="M17,19.98c-.06,2.48.42,6.3-.34,7.04-.07-3.19-.13-6.44.18-9.6.14.91.18,1.78.16,2.56Z"/><path class="cls-1" d="M28.01,38.16c-.97-.47-.41-1.38-.4-2.13l.22-10.46.18,12.58Z"/><path class="cls-1" d="M9.08,11.35l-.65-1.05c-.14-.23,1.03-.91.98-.62l-.33,1.67Z"/><path class="cls-1" d="M34.39,32.01c-.18-2.82-.26-5.58.12-8.31.29,2.98.15,5.62-.12,8.31Z"/><path class="cls-1" d="M13.61,23.86c-.62-.57-.59-1.71.1-1.93l-.1,1.93Z"/><path class="cls-1" d="M8.91,19.37l-.17-1.73c.65.38.7.95.17,1.73Z"/><path class="cls-1" d="M32.23,31.47l-.21-4.69.2-5.17c.32,3.26.3,6.52.01,9.86Z"/><path class="cls-1" d="M8.95,17.24l.12-5.63c.35,1.83.42,3.6-.12,5.63Z"/><path class="cls-1" d="M10.15,20.37c-.14-1.17-.17-2.34.14-3.51.08,1.25,0,2.28-.14,3.51Z"/><path class="cls-1" d="M33.32,30.36c-.14-2.38-.15-4.72.02-7.17.2,2.35.2,4.62-.02,7.17Z"/></svg>